/* XPM */
static char *_b413c3de331473cda4d0b01770a1a1f[] = {
/* columns rows colors chars-per-pixel */
"64 64 7 1 ",
"  c gray29",
". c #4B4B4B",
"X c #4C4C4C",
"o c #979797",
"O c #989898",
"+ c gray60",
"@ c None",
/* pixels */
"@@@@@@@@@OooooooooooooooooooooooooooooooooooooO@@@@@@@@@@@@@@@@@",
"@@@@@@@oooooooooooooooooooooooooooooooooooooooO@@@@@@@@@@@@@@@@@",
"@@@@@OooooooooooooooooooooooooooooooooooooooooO@@@@@@@@@@@@@@@@@",
"@@@@OoooooooooooooooooooooooooooooooooooooooooO@@@@@@@@@@@@@@@@@",
"@@@OooooooooooooooooooooooooooooooooooooooooooO@@@@@@@@@@@@@@@@@",
"@@ooooooooooooooooooooooooooooooooooooooooooooO@@@@@@@@@@@@@@@@@",
"@@ooooooooooooooooooooooooooooooooooooooooooooO@@@@@@@@@@@@@@@@@",
"@OooooooooooooooooooooooooooooooooooooooooooooO@@@@@@@@@@@@@@@@@",
"@OoooooooooooooooooooooooooooooOooooooooooooooO@@@@@@@@@@@@@@@@@",
"@oooooooooooOOOOOOOOOOOOOOOOOOOOOOOOOOOOOOOOOO@@@@@@@@@@@@@@@@@@",
"OoooooooooO@@@@@@@@@@@@@@@@@@@@@@@@@@@@@@@@@@@@@@@@@@@@@@@@@@@@@",
"Oooooooooo@@@@@@@@@@@@@@@@@@@@@@@@@@@@@@@@@@@@@@@@@@@@@@@@@@@@@@",
"Oooooooooo@@@@@@@@@@@@@@@@@@@@@@@@@@@@@@@@@@@@@@@@@@@@@@@@@@@@@@",
"oooooooooo@@@@@@@@@@@@@@@@@@@@@@@@@@@@@@@@@@@@@@@@@@@@@@@@@@@@@@",
"oooooooooo@@@@@@@@@@@@@@@@@@@@@@@@@@@@@@@@@@@@@@@@@@@@@@@@@@@@@@",
"oooooooooo@@@@@@@@@@@@@@@@@@@@@@@@@@@@@@@@@@@@@@@@@@@@@@@@@@@@@@",
"oooooooooo@@@@@@@@@@@@@@@@@@@@@@@@@@@@@@@@@@@@@@@@@@@@@@@@@@@@@@",
"oooooooooo@@@@@@@@@@@@@@@@@@@@@@@@@@@@@@@@@@@@@@@@@@@@@@@@@@@@@@",
"oooooooooo@@@@@@@@@@@@@@@@@@@@@@@@@@@@@@@@@@@@@@@@@@@@@@@@@@@@@@",
"oooooooooo@@@@@@@@@          @@@@@@OOOOOOOOO@@@@@@@@@@          ",
"oooooooooo@@@@@@@@@          @@@@@@ooooooooooO@@@@@@@@          ",
"oooooooooo@@@@@@@@@         X@@@@@@oooooooooooO@@@@@@@          ",
"oooooooooo@@@@@@@@@          @@@@@@ooooooooooooO@@@@@@          ",
"oooooooooo@@@@@@@@@         X@@@@@@oooooooooooooO@@@@@          ",
"oooooooooo@@@@@@@@@         X@@@@@@oooooooooooooO@@@@@          ",
"oooooooooo@@@@@@@@@          @@@@@@oooooooooooooO@@@@@          ",
"oooooooooo@@@@@@@@@         X@@@@@@ooooooooooooooO@@@@          ",
"oooooooooo@@@@@@@@@          @@@@@@ooooooooooooooo@@@@          ",
"oooooooooo@@@@@@@@@          @@@@@@OOOOOOooooooooO@@@@          ",
"oooooooooo@@@@@@@@@         X@@@@@@@@@@@OooooooooO@@@@          ",
"oooooooooo@@@@@@@@@          @@@@@@@@@@@OooooooooO@@@@          ",
"oooooooooo@@@@@@@@@         X@@@@@@@@@@@OooooooooO@@@@          ",
"oooooooooo@@@@@@@@@          @@@@@@@@@@@OooooooooO@@@@          ",
"oooooooooo@@@@@@@@@         X@@@@@@@@@@@OooooooooO@@@@          ",
"oooooooooo@@@@@@@@@          @@@@@@@@@@@OooooooooO@@@@          ",
"OooooooooO@@@@@@@@@         X@@@@@@@@@@@oooooooooO@@@@          ",
"Oooooooooo@@@@@@@@@         X@@@@@@@@@@@oooooooooO@@@@          ",
"OoooooooooO@@@@@@@@          @@@@@@@@@@OoooooooooO@@@@          ",
"@oooooooooooOoooO@@         X@@oooooooooooooooooo@@@@@          ",
"@oooooooooooooooO@@          @@oooooooooooooooooO@@@@@          ",
"@oooooooooooooooo@@          @@oooooooooooooooooo@@@@@          ",
"@@ooooooooooooooo@@         X@@ooooooooooooooooO@@@@@@          ",
"@@@Oooooooooooooo@@          @@oooooooooooooooo@@@@@@@          ",
"@@@Oooooooooooooo@@         X@@ooooooooooooooOO@@@@@@@          ",
"@@@@OOooooooooooo@@          @@oooooooooooooOO@@@@@@@@          ",
"@@@@@@ooooooooooo@@         X@@ooooooooooooo@@@@@@@@@@          ",
"@@@@@@@oooooooooo@@          @@OoooooooooO@@@@@@@@@@@@          ",
"@@@@@@@@@@OOOooo@@@         X@@OOOOOOOO@@@@@@@@@@@@@@@          ",
"@@@@@@@@@@@@@@@@@@@          @@@@@@@@@@@@@@@@@@@@@@@@@          ",
"@@@@@@@@@@@@@@@@@@@         X@@@@@@@@@@@@@@@@@@@@@@@@@          ",
"@@@@@@@@@@@@@@@@@@@          @@@@@@@@@@@@@@@@@@@@@@@@@          ",
"@@@@@@@@@@@@@@@@@@@          @@@@@@@@@@@@@@@@@@@@@@@@@         X",
"@@@@@@@@@@@@@@@@@@@          @@@@@@@@@@@@@@@@@@@@@@@@@          ",
"@@@@@@@@@@@@@@@@@@@           @@@@@@@@@@@@@@@@@@@@@@@          @",
"@@@@@@@@@@@@@@@@@@@X           X                               @",
"@@@@@@@@@@@@@@@@@@@@                                           @",
"@@@@@@@@@@@@@@@@@@@@X                                         X@",
"@@@@@@@@@@@@@@@@@@@@@                                         @@",
"@@@@@@@@@@@@@@@@@@@@@                                        @@@",
"@@@@@@@@@@@@@@@@@@@@@@                                      X@@@",
"@@@@@@@@@@@@@@@@@@@@@@@                                     @@@@",
"@@@@@@@@@@@@@@@@@@@@@@@@X                                 @@@@@@",
"@@@@@@@@@@@@@@@@@@@@@@@@@@                               @@@@@@@",
"@@@@@@@@@@@@@@@@@@@@@@@@@@@@@                      X  @@@@@@@@@@"
};
