/* XPM */
static char *b6705327d27c46d9ed14a90e55e666b1[] = {
/* columns rows colors chars-per-pixel */
"32 32 7 1 ",
"  c gray29",
". c #4B4B4B",
"X c #4C4C4C",
"o c #979797",
"O c #989898",
"+ c gray60",
"@ c None",
/* pixels */
"@@@@OOooooooooooooooooo@@@@@@@@@",
"@@ooooooooooooooooooooo@@@@@@@@@",
"@Oooooooooooooooooooooo@@@@@@@@@",
"@oooooooooooooooooooooo@@@@@@@@@",
"OooooOooooooooooooooooo@@@@@@@@@",
"ooooo@@@@@@@@@@@@@@@@@@@@@@@@@@@",
"OoooO@@@@@@@@@@@@@@@@@@@@@@@@@@@",
"ooooO@@@@@@@@@@@@@@@@@@@@@@@@@@@",
"ooooO@@@@@@@@@@@@@@@@@@@@@@@@@@@",
"ooooO@@@@@@@@@@@@@@@@@@@@@@@@@@@",
"ooooO@@@@X    @@@Oooooo@@@@     ",
"ooooO@@@@     @@@OoooooO@@@     ",
"ooooO@@@@     @@@Oooooooo@@     ",
"ooooO@@@@X    @@@OooooooO@@     ",
"ooooO@@@@X    @@@@@@ooooo@@     ",
"ooooO@@@@     @@@@@@Ooooo@@     ",
"ooooO@@@@X    @@@@@@Ooooo@@     ",
"OoooO@@@@     @@@@@@OoooO@@     ",
"ooooo@@@@     @@@@@@ooooO@@     ",
"ooooooOO@X    @OooooooooO@@     ",
"@Ooooooo@X    @Ooooooooo@@@     ",
"@@oooooo@     @Oooooooo@@@@     ",
"@@@Ooooo@X    @OoooooO@@@@@     ",
"@@@@ooOo@     @OooOOO@@@@@@     ",
"@@@@@@@@@X    @@@@@@@@@@@@@     ",
"@@@@@@@@@X    @@@@@@@@@@@@@    X",
"@@@@@@@@@@     @@@@@@@@@@@@     ",
"@@@@@@@@@@     X                ",
"@@@@@@@@@@X                    @",
"@@@@@@@@@@@                   @@",
"@@@@@@@@@@@@                X@@@",
"@@@@@@@@@@@@@@  X X X X X   @@@@"
};
