/* XPM */
static char *_4ee14a6abf14ccaba46d505da62dfbf[] = {
/* columns rows colors chars-per-pixel */
"128 128 7 1 ",
"  c gray29",
". c #4B4B4B",
"X c #4C4C4C",
"o c #979797",
"O c #989898",
"+ c gray60",
"@ c None",
/* pixels */
"@@@@@@@@@@@@@@@@@@@OOOoooooooooooooooooooooooooooooooooooooooooooooooooooooooooooooooooooooooO@@@@@@@@@@@@@@@@@@@@@@@@@@@@@@@@@@",
"@@@@@@@@@@@@@@@@oooooooooooooooooooooooooooooooooooooooooooooooooooooooooooooooooooooooooooooO@@@@@@@@@@@@@@@@@@@@@@@@@@@@@@@@@@",
"@@@@@@@@@@@@@@oOoooooooooooooooooooooooooooooooooooooooooooooooooooooooooooooooooooooooooooooO@@@@@@@@@@@@@@@@@@@@@@@@@@@@@@@@@@",
"@@@@@@@@@@@@oOoooooooooooooooooooooooooooooooooooooooooooooooooooooooooooooooooooooooooooooooO@@@@@@@@@@@@@@@@@@@@@@@@@@@@@@@@@@",
"@@@@@@@@@@@OoooooooooooooooooooooooooooooooooooooooooooooooooooooooooooooooooooooooooooooooooO@@@@@@@@@@@@@@@@@@@@@@@@@@@@@@@@@@",
"@@@@@@@@@@OooooooooooooooooooooooooooooooooooooooooooooooooooooooooooooooooooooooooooooooooooO@@@@@@@@@@@@@@@@@@@@@@@@@@@@@@@@@@",
"@@@@@@@@oooooooooooooooooooooooooooooooooooooooooooooooooooooooooooooooooooooooooooooooooooooO@@@@@@@@@@@@@@@@@@@@@@@@@@@@@@@@@@",
"@@@@@@@ooooooooooooooooooooooooooooooooooooooooooooooooooooooooooooooooooooooooooooooooooooooO@@@@@@@@@@@@@@@@@@@@@@@@@@@@@@@@@@",
"@@@@@@@ooooooooooooooooooooooooooooooooooooooooooooooooooooooooooooooooooooooooooooooooooooooO@@@@@@@@@@@@@@@@@@@@@@@@@@@@@@@@@@",
"@@@@@@OooooooooooooooooooooooooooooooooooooooooooooooooooooooooooooooooooooooooooooooooooooooO@@@@@@@@@@@@@@@@@@@@@@@@@@@@@@@@@@",
"@@@@@ooooooooooooooooooooooooooooooooooooooooooooooooooooooooooooooooooooooooooooooooooooooooO@@@@@@@@@@@@@@@@@@@@@@@@@@@@@@@@@@",
"@@@@OooooooooooooooooooooooooooooooooooooooooooooooooooooooooooooooooooooooooooooooooooooooooO@@@@@@@@@@@@@@@@@@@@@@@@@@@@@@@@@@",
"@@@@oooooooooooooooooooooooooooooooooooooooooooooooooooooooooooooooooooooooooooooooooooooooooO@@@@@@@@@@@@@@@@@@@@@@@@@@@@@@@@@@",
"@@@ooooooooooooooooooooooooooooooooooooooooooooooooooooooooooooooooooooooooooooooooooooooooooO@@@@@@@@@@@@@@@@@@@@@@@@@@@@@@@@@@",
"@@@ooooooooooooooooooooooooooooooooooooooooooooooooooooooooooooooooooooooooooooooooooooooooooO@@@@@@@@@@@@@@@@@@@@@@@@@@@@@@@@@@",
"@@OooooooooooooooooooooooooooooooooooooooooooooooooooooooooooooooooooooooooooooooooooooooooooO@@@@@@@@@@@@@@@@@@@@@@@@@@@@@@@@@@",
"@@oooooooooooooooooooooooooooooooooooooooooooooooooooooooooooooooooooooooooooooooooooooooooooO@@@@@@@@@@@@@@@@@@@@@@@@@@@@@@@@@@",
"@@oooooooooooooooooooooooooooooooooooooooooooooooooooooooooooooooooooooooooooooooooooooooooooO@@@@@@@@@@@@@@@@@@@@@@@@@@@@@@@@@@",
"@OoooooooooooooooooooooOoooooooooooooooooooooooooooooooooooooooooooooooooooooooooooooooooooooO@@@@@@@@@@@@@@@@@@@@@@@@@@@@@@@@@@",
"@ooooooooooooooooooooooO@@@@@@@@@@@@@@@@@@@@@@@@@@@@@@@@@@@@@@@@@@@@@@@@@@@@@@@@@@@@@@@@@@@@@@@@@@@@@@@@@@@@@@@@@@@@@@@@@@@@@@@@",
"@ooooooooooooooooooooo@@@@@@@@@@@@@@@@@@@@@@@@@@@@@@@@@@@@@@@@@@@@@@@@@@@@@@@@@@@@@@@@@@@@@@@@@@@@@@@@@@@@@@@@@@@@@@@@@@@@@@@@@@",
"@oooooooooooooooooooO@@@@@@@@@@@@@@@@@@@@@@@@@@@@@@@@@@@@@@@@@@@@@@@@@@@@@@@@@@@@@@@@@@@@@@@@@@@@@@@@@@@@@@@@@@@@@@@@@@@@@@@@@@@",
"@ooooooooooooooooooo@@@@@@@@@@@@@@@@@@@@@@@@@@@@@@@@@@@@@@@@@@@@@@@@@@@@@@@@@@@@@@@@@@@@@@@@@@@@@@@@@@@@@@@@@@@@@@@@@@@@@@@@@@@@",
"Oooooooooooooooooooo@@@@@@@@@@@@@@@@@@@@@@@@@@@@@@@@@@@@@@@@@@@@@@@@@@@@@@@@@@@@@@@@@@@@@@@@@@@@@@@@@@@@@@@@@@@@@@@@@@@@@@@@@@@@",
"OooooooooooooooooooO@@@@@@@@@@@@@@@@@@@@@@@@@@@@@@@@@@@@@@@@@@@@@@@@@@@@@@@@@@@@@@@@@@@@@@@@@@@@@@@@@@@@@@@@@@@@@@@@@@@@@@@@@@@@",
"OooooooooooooooooooO@@@@@@@@@@@@@@@@@@@@@@@@@@@@@@@@@@@@@@@@@@@@@@@@@@@@@@@@@@@@@@@@@@@@@@@@@@@@@@@@@@@@@@@@@@@@@@@@@@@@@@@@@@@@",
"OooooooooooooooooooO@@@@@@@@@@@@@@@@@@@@@@@@@@@@@@@@@@@@@@@@@@@@@@@@@@@@@@@@@@@@@@@@@@@@@@@@@@@@@@@@@@@@@@@@@@@@@@@@@@@@@@@@@@@@",
"OooooooooooooooooooO@@@@@@@@@@@@@@@@@@@@@@@@@@@@@@@@@@@@@@@@@@@@@@@@@@@@@@@@@@@@@@@@@@@@@@@@@@@@@@@@@@@@@@@@@@@@@@@@@@@@@@@@@@@@",
"OooooooooooooooooooO@@@@@@@@@@@@@@@@@@@@@@@@@@@@@@@@@@@@@@@@@@@@@@@@@@@@@@@@@@@@@@@@@@@@@@@@@@@@@@@@@@@@@@@@@@@@@@@@@@@@@@@@@@@@",
"OooooooooooooooooooO@@@@@@@@@@@@@@@@@@@@@@@@@@@@@@@@@@@@@@@@@@@@@@@@@@@@@@@@@@@@@@@@@@@@@@@@@@@@@@@@@@@@@@@@@@@@@@@@@@@@@@@@@@@@",
"OooooooooooooooooooO@@@@@@@@@@@@@@@@@@@@@@@@@@@@@@@@@@@@@@@@@@@@@@@@@@@@@@@@@@@@@@@@@@@@@@@@@@@@@@@@@@@@@@@@@@@@@@@@@@@@@@@@@@@@",
"OooooooooooooooooooO@@@@@@@@@@@@@@@@@@@@@@@@@@@@@@@@@@@@@@@@@@@@@@@@@@@@@@@@@@@@@@@@@@@@@@@@@@@@@@@@@@@@@@@@@@@@@@@@@@@@@@@@@@@@",
"OooooooooooooooooooO@@@@@@@@@@@@@@@@@@@@@@@@@@@@@@@@@@@@@@@@@@@@@@@@@@@@@@@@@@@@@@@@@@@@@@@@@@@@@@@@@@@@@@@@@@@@@@@@@@@@@@@@@@@@",
"OooooooooooooooooooO@@@@@@@@@@@@@@@@@@@@@@@@@@@@@@@@@@@@@@@@@@@@@@@@@@@@@@@@@@@@@@@@@@@@@@@@@@@@@@@@@@@@@@@@@@@@@@@@@@@@@@@@@@@@",
"OooooooooooooooooooO@@@@@@@@@@@@@@@@@@@@@@@@@@@@@@@@@@@@@@@@@@@@@@@@@@@@@@@@@@@@@@@@@@@@@@@@@@@@@@@@@@@@@@@@@@@@@@@@@@@@@@@@@@@@",
"OooooooooooooooooooO@@@@@@@@@@@@@@@@@@@@@@@@@@@@@@@@@@@@@@@@@@@@@@@@@@@@@@@@@@@@@@@@@@@@@@@@@@@@@@@@@@@@@@@@@@@@@@@@@@@@@@@@@@@@",
"OooooooooooooooooooO@@@@@@@@@@@@@@@@@@@@@@@@@@@@@@@@@@@@@@@@@@@@@@@@@@@@@@@@@@@@@@@@@@@@@@@@@@@@@@@@@@@@@@@@@@@@@@@@@@@@@@@@@@@@",
"OooooooooooooooooooO@@@@@@@@@@@@@@@@@@@@@@@@@@@@@@@@@@@@@@@@@@@@@@@@@@@@@@@@@@@@@@@@@@@@@@@@@@@@@@@@@@@@@@@@@@@@@@@@@@@@@@@@@@@@",
"OooooooooooooooooooO@@@@@@@@@@@@@@@@@@                   @@@@@@@@@@@@@oooooooooooooOOo@@@@@@@@@@@@@@@@@@@@@@                   @",
"OooooooooooooooooooO@@@@@@@@@@@@@@@@@@                   @@@@@@@@@@@@@oooooooooooooooooOo@@@@@@@@@@@@@@@@@@@                   @",
"OooooooooooooooooooO@@@@@@@@@@@@@@@@@@                   @@@@@@@@@@@@@ooooooooooooooooooooO@@@@@@@@@@@@@@@@@                   @",
"OooooooooooooooooooO@@@@@@@@@@@@@@@@@@                   @@@@@@@@@@@@@oooooooooooooooooooooO@@@@@@@@@@@@@@@@                   @",
"OooooooooooooooooooO@@@@@@@@@@@@@@@@@@                   @@@@@@@@@@@@@oooooooooooooooooooooooo@@@@@@@@@@@@@@                   @",
"OooooooooooooooooooO@@@@@@@@@@@@@@@@@@                   @@@@@@@@@@@@@ooooooooooooooooooooooooo@@@@@@@@@@@@@                   @",
"OooooooooooooooooooO@@@@@@@@@@@@@@@@@@                   @@@@@@@@@@@@@ooooooooooooooooooooooooOO@@@@@@@@@@@@                   @",
"OooooooooooooooooooO@@@@@@@@@@@@@@@@@@                   @@@@@@@@@@@@@oooooooooooooooooooooooooo@@@@@@@@@@@@                   @",
"OooooooooooooooooooO@@@@@@@@@@@@@@@@@@                   @@@@@@@@@@@@@ooooooooooooooooooooooooooo@@@@@@@@@@@                   @",
"OooooooooooooooooooO@@@@@@@@@@@@@@@@@@                   @@@@@@@@@@@@@oooooooooooooooooooooooooooO@@@@@@@@@@                   @",
"OooooooooooooooooooO@@@@@@@@@@@@@@@@@@                   @@@@@@@@@@@@@oooooooooooooooooooooooooooO@@@@@@@@@@                   @",
"OooooooooooooooooooO@@@@@@@@@@@@@@@@@@                   @@@@@@@@@@@@@oooooooooooooooooooooooooooo@@@@@@@@@@                   @",
"OooooooooooooooooooO@@@@@@@@@@@@@@@@@@                   @@@@@@@@@@@@@ooooooooooooooooooooooooooooO@@@@@@@@@                   @",
"OooooooooooooooooooO@@@@@@@@@@@@@@@@@@                   @@@@@@@@@@@@@ooooooooooooooooooooooooooooO@@@@@@@@@                   @",
"OooooooooooooooooooO@@@@@@@@@@@@@@@@@@                   @@@@@@@@@@@@@ooooooooooooooooooooooooooooo@@@@@@@@@                   @",
"OooooooooooooooooooO@@@@@@@@@@@@@@@@@@                   @@@@@@@@@@@@@ooooooooooooooooooooooooooooo@@@@@@@@@                   @",
"OooooooooooooooooooO@@@@@@@@@@@@@@@@@@                   @@@@@@@@@@@@@ooooooooooooooooooooooooooooo@@@@@@@@@                   @",
"OooooooooooooooooooO@@@@@@@@@@@@@@@@@@                   @@@@@@@@@@@@@oooooooooooooooooooooooooooooO@@@@@@@@                   @",
"OooooooooooooooooooO@@@@@@@@@@@@@@@@@@                   @@@@@@@@@@@@@ooooooooooooooooooooooooooooOO@@@@@@@@                   @",
"OooooooooooooooooooO@@@@@@@@@@@@@@@@@@                   @@@@@@@@@@@@@ooooooooooooooooooooooooooooOO@@@@@@@@                   @",
"OooooooooooooooooooO@@@@@@@@@@@@@@@@@@                   @@@@@@@@@@@@@@@@@@@@@@@oooooooooooooooooooO@@@@@@@@                   @",
"OooooooooooooooooooO@@@@@@@@@@@@@@@@@@                   @@@@@@@@@@@@@@@@@@@@@@@oooooooooooooooooooO@@@@@@@@                   @",
"OooooooooooooooooooO@@@@@@@@@@@@@@@@@@                   @@@@@@@@@@@@@@@@@@@@@@@oooooooooooooooooOOO@@@@@@@@                   @",
"OooooooooooooooooooO@@@@@@@@@@@@@@@@@@                   @@@@@@@@@@@@@@@@@@@@@@@oooooooooooooooooOOO@@@@@@@@                   @",
"OooooooooooooooooooO@@@@@@@@@@@@@@@@@@                   @@@@@@@@@@@@@@@@@@@@@@@ooooooooooooooooooOO@@@@@@@@                   @",
"OooooooooooooooooooO@@@@@@@@@@@@@@@@@@                   @@@@@@@@@@@@@@@@@@@@@@@ooooooooooooooooooOO@@@@@@@@                   @",
"OooooooooooooooooooO@@@@@@@@@@@@@@@@@@                   @@@@@@@@@@@@@@@@@@@@@@@ooooooooooooooooooOO@@@@@@@@                   @",
"OooooooooooooooooooO@@@@@@@@@@@@@@@@@@                   @@@@@@@@@@@@@@@@@@@@@@@ooooooooooooooooooOO@@@@@@@@                   @",
"OooooooooooooooooooO@@@@@@@@@@@@@@@@@@                   @@@@@@@@@@@@@@@@@@@@@@@oooooooooooooooooooO@@@@@@@@                   @",
"OooooooooooooooooooO@@@@@@@@@@@@@@@@@@                   @@@@@@@@@@@@@@@@@@@@@@@oooooooooooooooooooO@@@@@@@@                   @",
"OooooooooooooooooooO@@@@@@@@@@@@@@@@@@                   @@@@@@@@@@@@@@@@@@@@@@@ooooooooooooooooooOO@@@@@@@@                   @",
"OooooooooooooooooooO@@@@@@@@@@@@@@@@@@                   @@@@@@@@@@@@@@@@@@@@@@@ooooooooooooooooooOO@@@@@@@@                   @",
"Oooooooooooooooooooo@@@@@@@@@@@@@@@@@@                   @@@@@@@@@@@@@@@@@@@@@@@ooooooooooooooooooOO@@@@@@@@                   @",
"OooooooooooooooooooO@@@@@@@@@@@@@@@@@@                   @@@@@@@@@@@@@@@@@@@@@@@ooooooooooooooooooO@@@@@@@@@                   @",
"@Ooooooooooooooooooo@@@@@@@@@@@@@@@@@@                   @@@@@@@@@@@@@@@@@@@@@@Oooooooooooooooooooo@@@@@@@@@                   @",
"@oooooooooooooooooooO@@@@@@@@@@@@@@@@@                   @@@@@@@@@@@@@@@@@@@@@@Oooooooooooooooooooo@@@@@@@@@                   @",
"@ooooooooooooooooooooO@@@@@@@@@@@@@@@@                   @@@@@@@@@@@@@@@@@@@@@ooooooooooooooooooooo@@@@@@@@@                   @",
"@Oooooooooooooooooooooo@@@@@@@@@@@@@@@                   @@@@@@@@@@@@@@@@@@@oOooooooooooooooooooooO@@@@@@@@@                   @",
"@OoooooooooooooooooooooooOooooooo@@@@@                   @@@@@ooooooooooooooooooooooooooooooooooooo@@@@@@@@@                   @",
"@oooooooooooooooooooooooooooooooo@@@@@                   @@@@@oooooooooooooooooooooooooooooooooooo@@@@@@@@@@                   @",
"@@ooooooooooooooooooooooooooooooo@@@@@                   @@@@@oooooooooooooooooooooooooooooooooooO@@@@@@@@@@                   @",
"@@ooooooooooooooooooooooooooooooo@@@@@                   @@@@@oooooooooooooooooooooooooooooooooooO@@@@@@@@@@                   @",
"@@@oooooooooooooooooooooooooooooo@@@@@                   @@@@@ooooooooooooooooooooooooooooooooooo@@@@@@@@@@@                   @",
"@@@Oooooooooooooooooooooooooooooo@@@@@                   @@@@@ooooooooooooooooooooooooooooooooooO@@@@@@@@@@@                   @",
"@@@@ooooooooooooooooooooooooooooo@@@@@                   @@@@@oooooooooooooooooooooooooooooooooo@@@@@@@@@@@@                   @",
"@@@@Ooooooooooooooooooooooooooooo@@@@@                   @@@@@oooooooooooooooooooooooooooooooooO@@@@@@@@@@@@                   @",
"@@@@@Oooooooooooooooooooooooooooo@@@@@                   @@@@@ooooooooooooooooooooooooooooooooo@@@@@@@@@@@@@                   @",
"@@@@@@ooooooooooooooooooooooooooo@@@@@                   @@@@@oooooooooooooooooooooooooooooooo@@@@@@@@@@@@@@                   @",
"@@@@@@Ooooooooooooooooooooooooooo@@@@@                   @@@@@ooooooooooooooooooooooooooooooo@@@@@@@@@@@@@@@                   @",
"@@@@@@@oooooooooooooooooooooooooo@@@@@                   @@@@@ooooooooooooooooooooooooooooooo@@@@@@@@@@@@@@@                   @",
"@@@@@@@@Ooooooooooooooooooooooooo@@@@@                   @@@@@ooooooooooooooooooooooooooooO@@@@@@@@@@@@@@@@@                   @",
"@@@@@@@@@Oooooooooooooooooooooooo@@@@@                   @@@@@oooooooooooooooooooooooooooO@@@@@@@@@@@@@@@@@@                   @",
"@@@@@@@@@@@Oooooooooooooooooooooo@@@@@                   @@@@@ooooooooooooooooooooooooooO@@@@@@@@@@@@@@@@@@@                   @",
"@@@@@@@@@@@@Ooooooooooooooooooooo@@@@@                   @@@@@oooooooooooooooooooooooooO@@@@@@@@@@@@@@@@@@@@                   @",
"@@@@@@@@@@@@@@ooooooooooooooooooo@@@@@                   @@@@@oooooooooooooooooooooooO@@@@@@@@@@@@@@@@@@@@@@                   @",
"@@@@@@@@@@@@@@@@Ooooooooooooooooo@@@@@                   @@@@@oooooooooooooooooooooO@@@@@@@@@@@@@@@@@@@@@@@@                   @",
"@@@@@@@@@@@@@@@@@@@OOooooOooooooo@@@@@                   @@@@@oOoooooooooooooooOO@@@@@@@@@@@@@@@@@@@@@@@@@@@                   @",
"@@@@@@@@@@@@@@@@@@@@@@@@@Oooooooo@@@@@                   @@@@@@@@@@@@@@@@@@@@@@@@@@@@@@@@@@@@@@@@@@@@@@@@@@@                   @",
"@@@@@@@@@@@@@@@@@@@@@@@@@@@@@@@@@@@@@@                   @@@@@@@@@@@@@@@@@@@@@@@@@@@@@@@@@@@@@@@@@@@@@@@@@@@                   @",
"@@@@@@@@@@@@@@@@@@@@@@@@@@@@@@@@@@@@@@                   @@@@@@@@@@@@@@@@@@@@@@@@@@@@@@@@@@@@@@@@@@@@@@@@@@@                   @",
"@@@@@@@@@@@@@@@@@@@@@@@@@@@@@@@@@@@@@@                   @@@@@@@@@@@@@@@@@@@@@@@@@@@@@@@@@@@@@@@@@@@@@@@@@@@                   @",
"@@@@@@@@@@@@@@@@@@@@@@@@@@@@@@@@@@@@@@                   @@@@@@@@@@@@@@@@@@@@@@@@@@@@@@@@@@@@@@@@@@@@@@@@@@@                   @",
"@@@@@@@@@@@@@@@@@@@@@@@@@@@@@@@@@@@@@@                   @@@@@@@@@@@@@@@@@@@@@@@@@@@@@@@@@@@@@@@@@@@@@@@@@@@                   @",
"@@@@@@@@@@@@@@@@@@@@@@@@@@@@@@@@@@@@@@                   @@@@@@@@@@@@@@@@@@@@@@@@@@@@@@@@@@@@@@@@@@@@@@@@@@@                   @",
"@@@@@@@@@@@@@@@@@@@@@@@@@@@@@@@@@@@@@@                   @@@@@@@@@@@@@@@@@@@@@@@@@@@@@@@@@@@@@@@@@@@@@@@@@@@                   @",
"@@@@@@@@@@@@@@@@@@@@@@@@@@@@@@@@@@@@@@                    @@@@@@@@@@@@@@@@@@@@@@@@@@@@@@@@@@@@@@@@@@@@@@@@@@                   @",
"@@@@@@@@@@@@@@@@@@@@@@@@@@@@@@@@@@@@@@                    @@@@@@@@@@@@@@@@@@@@@@@@@@@@@@@@@@@@@@@@@@@@@@@@@                    @",
"@@@@@@@@@@@@@@@@@@@@@@@@@@@@@@@@@@@@@@                    X@@@@@@@@@@@@@@@@@@@@@@@@@@@@@@@@@@@@@@@@@@@@@@@@                    @",
"@@@@@@@@@@@@@@@@@@@@@@@@@@@@@@@@@@@@@@                     @@@@@@@@@@@@@@@@@@@@@@@@@@@@@@@@@@@@@@@@@@@@@@@X                    @",
"@@@@@@@@@@@@@@@@@@@@@@@@@@@@@@@@@@@@@@X                      @@@@@@@@@@@@@@@@@@@@@@@@@@@@@@@@@@@@@@@@@@@X                     X@",
"@@@@@@@@@@@@@@@@@@@@@@@@@@@@@@@@@@@@@@@                        X                                                               @",
"@@@@@@@@@@@@@@@@@@@@@@@@@@@@@@@@@@@@@@@                                                                                       @@",
"@@@@@@@@@@@@@@@@@@@@@@@@@@@@@@@@@@@@@@@X                                                                                      @@",
"@@@@@@@@@@@@@@@@@@@@@@@@@@@@@@@@@@@@@@@@                                                                                      @@",
"@@@@@@@@@@@@@@@@@@@@@@@@@@@@@@@@@@@@@@@@                                                                                     @@@",
"@@@@@@@@@@@@@@@@@@@@@@@@@@@@@@@@@@@@@@@@@                                                                                   X@@@",
"@@@@@@@@@@@@@@@@@@@@@@@@@@@@@@@@@@@@@@@@@X                                                                                  @@@@",
"@@@@@@@@@@@@@@@@@@@@@@@@@@@@@@@@@@@@@@@@@@                                                                                 X@@@@",
"@@@@@@@@@@@@@@@@@@@@@@@@@@@@@@@@@@@@@@@@@@X                                                                                @@@@@",
"@@@@@@@@@@@@@@@@@@@@@@@@@@@@@@@@@@@@@@@@@@@                                                                              X@@@@@@",
"@@@@@@@@@@@@@@@@@@@@@@@@@@@@@@@@@@@@@@@@@@@@                                                                             @@@@@@@",
"@@@@@@@@@@@@@@@@@@@@@@@@@@@@@@@@@@@@@@@@@@@@@                                                                           X@@@@@@@",
"@@@@@@@@@@@@@@@@@@@@@@@@@@@@@@@@@@@@@@@@@@@@@@X                                                                         @@@@@@@@",
"@@@@@@@@@@@@@@@@@@@@@@@@@@@@@@@@@@@@@@@@@@@@@@@                                                                       @@@@@@@@@@",
"@@@@@@@@@@@@@@@@@@@@@@@@@@@@@@@@@@@@@@@@@@@@@@@@                                                                     @@@@@@@@@@@",
"@@@@@@@@@@@@@@@@@@@@@@@@@@@@@@@@@@@@@@@@@@@@@@@@@@X                                                                 @@@@@@@@@@@@",
"@@@@@@@@@@@@@@@@@@@@@@@@@@@@@@@@@@@@@@@@@@@@@@@@@@@X                                                             X@@@@@@@@@@@@@@",
"@@@@@@@@@@@@@@@@@@@@@@@@@@@@@@@@@@@@@@@@@@@@@@@@@@@@@                                                           @@@@@@@@@@@@@@@@",
"@@@@@@@@@@@@@@@@@@@@@@@@@@@@@@@@@@@@@@@@@@@@@@@@@@@@@@@@X                                                   X@@@@@@@@@@@@@@@@@@@",
"@@@@@@@@@@@@@@@@@@@@@@@@@@@@@@@@@@@@@@@@@@@@@@@@@@@@@@@@@@@@@ X  X X X X X X X X X X X X X X X X X X X  @@@@@@@@@@@@@@@@@@@@@@@@"
};
